<svg xmlns="http://www.w3.org/2000/svg" width="1600" height="900" viewBox="0 0 1600 900">
  <defs>
    <linearGradient id="bg" x1="0%" y1="0%" x2="100%" y2="100%">
      <stop offset="0%" stop-color="#07182b"/>
      <stop offset="40%" stop-color="#0f3554"/>
      <stop offset="100%" stop-color="#0f7a4e"/>
    </linearGradient>
    <linearGradient id="line" x1="0%" y1="0%" x2="100%" y2="0%">
      <stop offset="0%" stop-color="#00A651"/>
      <stop offset="100%" stop-color="#7fe0ac"/>
    </linearGradient>
  </defs>
  <rect width="1600" height="900" fill="url(#bg)"/>
  <rect x="0" y="0" width="1600" height="900" fill="url(#bg)"/>
  <circle cx="1270" cy="220" r="220" fill="#ffffff" opacity="0.08"/>
  <circle cx="340" cy="220" r="180" fill="#00A651" opacity="0.16"/>
  <path d="M0 620C180 560 330 550 450 585C595 626 700 690 870 690C1030 690 1170 635 1600 540V900H0Z" fill="#0b2239" opacity="0.72"/>
  <rect x="180" y="500" width="340" height="120" rx="18" fill="#0d3f5f" opacity="0.95"/>
  <rect x="220" y="480" width="300" height="34" rx="12" fill="#00A651" opacity="0.9"/>
  <rect x="220" y="530" width="240" height="16" rx="8" fill="#7fe0ac" opacity="0.8"/>
  <rect x="220" y="560" width="190" height="16" rx="8" fill="#7fe0ac" opacity="0.65"/>
  <rect x="620" y="470" width="260" height="160" rx="18" fill="#163c58" opacity="0.92"/>
  <rect x="650" y="500" width="200" height="14" rx="7" fill="#00A651" opacity="0.85"/>
  <rect x="650" y="528" width="178" height="12" rx="6" fill="#7fe0ac" opacity="0.75"/>
  <rect x="650" y="556" width="150" height="12" rx="6" fill="#7fe0ac" opacity="0.7"/>
  <rect x="980" y="445" width="340" height="170" rx="22" fill="#0d3f5f" opacity="0.95"/>
  <rect x="1040" y="470" width="200" height="16" rx="8" fill="#00A651" opacity="0.9"/>
  <rect x="1040" y="500" width="180" height="12" rx="6" fill="#7fe0ac" opacity="0.75"/>
  <rect x="1040" y="526" width="220" height="12" rx="6" fill="#7fe0ac" opacity="0.7"/>
  <path d="M1020 350C1090 320 1162 310 1230 335" stroke="url(#line)" stroke-width="16" stroke-linecap="round"/>
  <path d="M1020 390C1080 360 1140 360 1190 375" stroke="#ffffff" stroke-width="8" stroke-linecap="round" opacity="0.7"/>
  <path d="M220 240L420 240L520 180L660 180L760 240H960L1120 180L1280 180L1400 240" stroke="#ffffff" stroke-width="12" stroke-linecap="round" stroke-linejoin="round" opacity="0.5"/>
  <rect x="1045" y="120" width="280" height="90" rx="24" fill="#ffffff" opacity="0.12"/>
  <path d="M1090 165H1260" stroke="#00A651" stroke-width="14" stroke-linecap="round"/>
  <path d="M1100 135H1245" stroke="#7fe0ac" stroke-width="8" stroke-linecap="round" opacity="0.9"/>
  <path d="M1102 195H1248" stroke="#7fe0ac" stroke-width="8" stroke-linecap="round" opacity="0.9"/>
  <text x="180" y="120" font-family="Segoe UI, Arial, sans-serif" font-size="82" font-weight="700" letter-spacing="1.5" fill="#ffffff">DP World</text>
  <text x="180" y="176" font-family="Segoe UI, Arial, sans-serif" font-size="34" font-weight="500" letter-spacing="4" fill="#9fdab4">CAREERS 2026</text>
  <text x="180" y="240" font-family="Segoe UI, Arial, sans-serif" font-size="28" font-weight="500" fill="#d3e9f2">Logistics • Ports • Supply Chain • Technology</text>
</svg>
